<svg xmlns="http://www.w3.org/2000/svg" width="14" height="16" viewBox="0 0 14 16">
  <g id="shield-lock" transform="translate(-1)">
    <path id="Path_122" data-name="Path 122" d="M5.338,1.59q-1.429.394-2.837.856a.481.481,0,0,0-.328.39,12.067,12.067,0,0,0,2.253,9.188,10.725,10.725,0,0,0,2.287,2.233,6.077,6.077,0,0,0,.893.533,2.223,2.223,0,0,0,.293.118.55.55,0,0,0,.1.025.615.615,0,0,0,.1-.025,2.173,2.173,0,0,0,.294-.118,6.221,6.221,0,0,0,.893-.533,10.726,10.726,0,0,0,2.287-2.233,12.066,12.066,0,0,0,2.253-9.188.48.48,0,0,0-.328-.39c-.651-.213-1.75-.56-2.837-.855A13.007,13.007,0,0,0,8,1.067a13.019,13.019,0,0,0-2.662.524ZM5.072.56A13.613,13.613,0,0,1,8,0a13.613,13.613,0,0,1,2.928.56c1.11.3,2.229.655,2.887.87a1.54,1.54,0,0,1,1.044,1.262,13.154,13.154,0,0,1-2.465,9.99,11.775,11.775,0,0,1-2.517,2.453,7.159,7.159,0,0,1-1.048.625A2.121,2.121,0,0,1,8,16a2.126,2.126,0,0,1-.829-.24,7.158,7.158,0,0,1-1.048-.625,11.777,11.777,0,0,1-2.517-2.453,13.154,13.154,0,0,1-2.465-9.99A1.54,1.54,0,0,1,2.185,1.43Q3.618.96,5.072.56Z" fill="#26ce3d"/>
    <path id="Path_123" data-name="Path 123" d="M9.5,6.5a1.5,1.5,0,0,1-1,1.415L8.885,9.9a.5.5,0,0,1-.491.6H7.606a.5.5,0,0,1-.49-.6L7.5,7.915A1.5,1.5,0,1,1,9.5,6.5Z" fill="#26ce3d"/>
  </g>
</svg>
