<svg xmlns="http://www.w3.org/2000/svg" width="50.002" height="49.999" viewBox="0 0 50.002 49.999">
  <path id="Subtraction_12" data-name="Subtraction 12" d="M-11808-9189h-40a5.005,5.005,0,0,1-5-5v-40a5.006,5.006,0,0,1,5-5h40a5.006,5.006,0,0,1,5,5v40A5,5,0,0,1-11808-9189Zm-28.688-36.827a3.377,3.377,0,0,0-1.329.273,3.273,3.273,0,0,0-1.107.773l-5.893,6.343a3.888,3.888,0,0,0-.726,1.088,3.152,3.152,0,0,0-.259,1.288,3.011,3.011,0,0,0,.229,1.2,4.239,4.239,0,0,0,.577.967,6.873,6.873,0,0,0,.789.845c.3.274.6.551.874.821a3.8,3.8,0,0,0-.4,1.719,3.821,3.821,0,0,0,.14,1.038,3.618,3.618,0,0,0,.423.961c-.011.065-.017.131-.022.194v.018q-.009.1-.009.193a3.049,3.049,0,0,0,.268,1.275,3.693,3.693,0,0,0,.765,1.086l5.548,5.545a4.456,4.456,0,0,0,1.351.932,4.573,4.573,0,0,0,1.6.381l.143.143c.316.325.6.6.859.836a6.076,6.076,0,0,0,.875.663,4.2,4.2,0,0,0,.99.446,4.37,4.37,0,0,0,1.244.163,4.678,4.678,0,0,0,1.733-.336,4.121,4.121,0,0,0,1.47-.993,4.879,4.879,0,0,0,1.172.143,4.53,4.53,0,0,0,1.711-.336,4.429,4.429,0,0,0,1.46-.979l5.563-5.561a3.82,3.82,0,0,0,1.154-2.781,3.832,3.832,0,0,0-.28-1.454l4.733-4.733a3.345,3.345,0,0,0,.734-1.094,3.405,3.405,0,0,0,.25-1.3,3.335,3.335,0,0,0-.922-2.313l-6.016-6.468a2.917,2.917,0,0,0-1.085-.734,3.493,3.493,0,0,0-1.288-.25,3.384,3.384,0,0,0-1.3.25,3.3,3.3,0,0,0-1.095.734l-2.781,2.781a9.616,9.616,0,0,0-.764-.639,4.993,4.993,0,0,0-.773-.485,3.582,3.582,0,0,0-.852-.307,4.806,4.806,0,0,0-1-.1,4.272,4.272,0,0,0-1.928.422,5.089,5.089,0,0,0-1.556,1.22l-2.892-2.892A3.237,3.237,0,0,0-11836.687-9225.828Zm6.86,26.937a1.683,1.683,0,0,1-.7-.141,2.939,2.939,0,0,1-.6-.351,4.438,4.438,0,0,1-.532-.47c-.166-.17-.334-.335-.5-.491a3.484,3.484,0,0,0,1.375-1.249,3.309,3.309,0,0,0,.5-1.782,3.249,3.249,0,0,0-.187-1.077,3.66,3.66,0,0,0-.515-.979,3.14,3.14,0,0,0-.789-.756,2.975,2.975,0,0,0-1.008-.439,2.414,2.414,0,0,0-.3-.8,3.319,3.319,0,0,0-.557-.7,3.639,3.639,0,0,0-.717-.547,2.886,2.886,0,0,0-.8-.321,3.952,3.952,0,0,0-.791-1.437,3.077,3.077,0,0,0-1.365-.875,2.663,2.663,0,0,0-.39-.806,3.028,3.028,0,0,0-.628-.64,2.772,2.772,0,0,0-.788-.423,2.721,2.721,0,0,0-.884-.148c-.06,0-.14,0-.273.015s-.243.03-.334.048a1.964,1.964,0,0,0-.321.086,1.16,1.16,0,0,0-.243.116l-2.249-2.2a1.071,1.071,0,0,1-.327-.782,1.175,1.175,0,0,1,.327-.8l5.938-6.422a.951.951,0,0,1,.366-.25,1.27,1.27,0,0,1,.431-.077,1.1,1.1,0,0,1,.8.327l3.686,3.688-3.031,3.063a2.16,2.16,0,0,0-.654,1.577,2.1,2.1,0,0,0,.374,1.226,3.452,3.452,0,0,0,.946.916,4.49,4.49,0,0,0,1.24.568,4.59,4.59,0,0,0,1.268.2,4.364,4.364,0,0,0,1.717-.327,5.007,5.007,0,0,0,1.454-.984l3.031-2.939,7.609,7.609a1.632,1.632,0,0,1,.164.2l.07.1.024.035.054.076a3.275,3.275,0,0,0,.116.39,1.176,1.176,0,0,1,.071.408,1.375,1.375,0,0,1-.125.592,2.634,2.634,0,0,1-.312.509,3.736,3.736,0,0,1-.413.452c-.146.136-.283.268-.432.416l-2.781-2.781a.548.548,0,0,0-.405-.157.549.549,0,0,0-.4.163.545.545,0,0,0-.163.4.541.541,0,0,0,.172.393l2.779,2.781-2.39,2.39-2.781-2.782a.528.528,0,0,0-.39-.154.535.535,0,0,0-.4.164.538.538,0,0,0-.166.4.541.541,0,0,0,.172.39l2.767,2.781-.11.125c-.129.139-.276.292-.452.47a4.258,4.258,0,0,1-.5.42,2.744,2.744,0,0,1-.562.306,1.707,1.707,0,0,1-.625.116,2.345,2.345,0,0,1-1-.211,3.738,3.738,0,0,1-.818-.515,5.206,5.206,0,0,1-.681-.673c-.223-.26-.408-.474-.587-.672a5.141,5.141,0,0,0-.523-.515.787.787,0,0,0-.5-.211.528.528,0,0,0-.39.172.532.532,0,0,0-.173.391.53.53,0,0,0,.173.39l2,1.986a5.2,5.2,0,0,1-.929.727A2.149,2.149,0,0,1-11829.827-9198.892Zm-3.877-2.279a2.384,2.384,0,0,1-.82-.148,1.979,1.979,0,0,1-.711-.461l-4.766-4.766c-.1-.1-.22-.221-.352-.345a4.544,4.544,0,0,1-.365-.4,2.273,2.273,0,0,1-.289-.442,1.038,1.038,0,0,1-.119-.471.984.984,0,0,1,.087-.407,2.087,2.087,0,0,1,.211-.357,5.225,5.225,0,0,1-.615-.7,1.494,1.494,0,0,1-.244-.9,1.505,1.505,0,0,1,.14-.634,1.714,1.714,0,0,1,.375-.523,1.914,1.914,0,0,1,.541-.352,1.558,1.558,0,0,1,.631-.134,1.619,1.619,0,0,1,.705.149,1.55,1.55,0,0,1,.523.4,1.856,1.856,0,0,1,.327.577,2.123,2.123,0,0,1,.116.705h.08a1.76,1.76,0,0,1,.788.193,2.309,2.309,0,0,1,.673.518,2.731,2.731,0,0,1,.461.711,1.933,1.933,0,0,1,.172.779.834.834,0,0,1-.032.188h.015a.777.777,0,0,0,.087-.006.575.575,0,0,1,.1-.009,2,2,0,0,1,.836.182,2.389,2.389,0,0,1,.705.477,2.26,2.26,0,0,1,.485.7,2.1,2.1,0,0,1,.178.846l-.015.187h.012a.61.61,0,0,0,.09-.008h.012c.031,0,.061,0,.089,0a2.025,2.025,0,0,1,.821.179,2.45,2.45,0,0,1,.7.476,2.272,2.272,0,0,1,.484.7,2.038,2.038,0,0,1,.179.836,2.416,2.416,0,0,1-.17.913,2.145,2.145,0,0,1-.479.72,2.032,2.032,0,0,1-.726.468A2.516,2.516,0,0,1-11833.7-9201.171Zm15.781-8.938h0l-7.844-7.845c-.613.638-1.249,1.265-1.942,1.916-.633.59-1.293,1.229-1.963,1.9a3.238,3.238,0,0,1-1.115.75,3.682,3.682,0,0,1-1.354.234,3.023,3.023,0,0,1-.779-.124,3.632,3.632,0,0,1-.86-.36,2.959,2.959,0,0,1-.7-.554,1.057,1.057,0,0,1-.288-.729,1.1,1.1,0,0,1,.327-.8l3.813-3.858.026-.028.144-.152c.132-.141.267-.283.4-.43a5.412,5.412,0,0,1,.61-.57,3.01,3.01,0,0,1,.687-.42,1.967,1.967,0,0,1,.818-.166,2.268,2.268,0,0,1,.868.172,2.207,2.207,0,0,1,.727.485l1.8,1.812,4.376-4.391a1.094,1.094,0,0,1,.8-.327,1.247,1.247,0,0,1,.428.086.908.908,0,0,1,.369.241l5.938,6.422a1.145,1.145,0,0,1,.327.782,1.107,1.107,0,0,1-.327.8l-5.282,5.155Z" transform="translate(11853.001 9239)" fill="#fff"/>
</svg>
